# Blender v2.80 (sub 75) OBJ File: 'crank.blend'
# www.blender.org
mtllib revival_crank.mtl
o stem_Cube.007
v 0.104551 -0.300144 0.099288
v 0.104551 -0.998846 0.099288
v 0.104551 -0.300144 -0.100712
v 0.104551 -0.998846 -0.100712
v -0.095449 -0.300144 0.099288
v -0.095449 -0.998846 0.099288
v -0.095449 -0.300144 -0.100712
v -0.095449 -0.998846 -0.100712
v 0.104551 -0.299856 0.099288
v 0.104551 -0.998557 0.099288
v 0.104551 -0.299856 -0.100712
v 0.104551 -0.998557 -0.100712
v -0.095449 -0.299856 0.099288
v -0.095449 -0.998557 0.099288
v -0.095449 -0.299856 -0.100712
v -0.095449 -0.998557 -0.100712
v -0.495449 -0.000000 0.100000
v 0.504551 0.000000 0.100000
v -0.495449 -0.000000 -0.100000
v 0.504551 0.000000 -0.100000
v -0.495449 -0.200000 0.100000
v 0.504551 -0.200000 0.100000
v -0.495449 -0.200000 -0.100000
v 0.504551 -0.200000 -0.100000
v -0.495449 -0.000000 0.100000
v 0.504551 0.000000 0.100000
v -0.495449 -0.000000 -0.100000
v 0.504551 0.000000 -0.100000
v -0.495449 -0.200000 0.100000
v 0.504551 -0.200000 0.100000
v -0.495449 -0.200000 -0.100000
v 0.504551 -0.200000 -0.100000
v -0.095449 -0.300000 0.200000
v -0.095449 0.100000 0.200000
v -0.095449 -0.300000 -0.200000
v -0.095449 0.100000 -0.200000
v 0.104551 -0.300000 0.200000
v 0.104551 0.100000 0.200000
v 0.104551 -0.300000 -0.200000
v 0.104551 0.100000 -0.200000
vt 0.001351 0.716403
vt 0.729388 0.716403
vt 0.729388 0.862011
vt 0.001351 0.862010
vt 0.729373 0.853140
vt 0.001336 0.853140
vt 0.001336 0.998747
vt 0.729373 0.998748
vt 0.729276 0.716723
vt 0.001239 0.716723
vt 0.001239 0.862330
vt 0.729276 0.862330
vt 0.001520 0.852561
vt 0.729556 0.852561
vt 0.729556 0.998168
vt 0.001520 0.998168
vt 0.998662 0.998656
vt 0.853054 0.998656
vt 0.853054 0.853048
vt 0.998662 0.853048
vt 0.853054 0.998656
vt 0.998662 0.998656
vt 0.998662 0.853048
vt 0.853054 0.853048
vt 0.003108 0.719346
vt 0.731144 0.719346
vt 0.731144 0.864953
vt 0.003108 0.864953
vt 0.000990 0.996844
vt 0.729027 0.996844
vt 0.729027 0.814835
vt 0.000990 0.814835
vt 0.003108 0.864953
vt 0.731144 0.864953
vt 0.731144 0.719346
vt 0.003108 0.719346
vt 0.000990 0.814835
vt 0.729027 0.814835
vt 0.729027 0.996844
vt 0.000990 0.996844
vt 0.999141 0.998095
vt 0.999141 0.816086
vt 0.853533 0.816086
vt 0.853533 0.998095
vt 0.994479 0.816241
vt 0.994479 0.998250
vt 0.848872 0.998250
vt 0.848872 0.816241
vt 0.354220 0.304136
vt 0.354220 0.668155
vt 0.645434 0.668155
vt 0.645434 0.304136
vt 0.027812 0.201806
vt 0.391831 0.201806
vt 0.391831 0.056199
vt 0.027812 0.056199
vt 0.957934 0.304136
vt 0.957934 0.668155
vt 0.666720 0.668155
vt 0.666720 0.304136
vt 0.197804 0.281815
vt 0.197804 0.645833
vt 0.052196 0.645833
vt 0.052196 0.281815
vt 0.652643 0.312845
vt 0.798250 0.312845
vt 0.798250 0.021631
vt 0.652643 0.021631
vt 0.970125 0.310613
vt 0.824518 0.310613
vt 0.824518 0.019398
vt 0.970125 0.019398
vn 1.0000 0.0000 0.0000
vn 0.0000 0.0000 -1.0000
vn -1.0000 -0.0000 0.0000
vn 0.0000 0.0000 1.0000
vn 0.0000 1.0000 0.0000
vn 0.0000 -1.0000 0.0000
usemtl Material.001
s off
f 1/1/1 2/2/1 4/3/1 3/4/1
f 3/5/2 4/6/2 8/7/2 7/8/2
f 7/9/3 8/10/3 6/11/3 5/12/3
f 5/13/4 6/14/4 2/15/4 1/16/4
f 3/17/5 7/18/5 5/19/5 1/20/5
f 8/21/6 4/22/6 2/23/6 6/24/6
f 17/25/5 18/26/5 20/27/5 19/28/5
f 19/29/2 20/30/2 24/31/2 23/32/2
f 23/33/6 24/34/6 22/35/6 21/36/6
f 21/37/4 22/38/4 18/39/4 17/40/4
f 19/41/3 23/42/3 21/43/3 17/44/3
f 24/45/1 20/46/1 18/47/1 22/48/1
f 33/49/3 34/50/3 36/51/3 35/52/3
f 35/53/2 36/54/2 40/55/2 39/56/2
f 39/57/1 40/58/1 38/59/1 37/60/1
f 37/61/4 38/62/4 34/63/4 33/64/4
f 35/65/6 39/66/6 37/67/6 33/68/6
f 40/69/5 36/70/5 34/71/5 38/72/5
l 1 9
l 2 10
l 3 11
l 4 12
l 5 13
l 6 14
l 7 15
l 8 16
l 17 25
l 18 26
l 19 27
l 20 28
l 21 29
l 22 30
l 23 31
l 24 32
